<?xml version="1.0" standalone="no"?>
<!DOCTYPE svg PUBLIC "-//W3C//DTD SVG 20010904//EN"
 "http://www.w3.org/TR/2001/REC-SVG-20010904/DTD/svg10.dtd">
<svg version="1.0" xmlns="http://www.w3.org/2000/svg"
 width="277.000000pt" height="277.000000pt" viewBox="0 0 277.000000 277.000000"
 preserveAspectRatio="xMidYMid meet">
<metadata>
Created by potrace 1.11, written by Peter Selinger 2001-2013
</metadata>
<g transform="translate(0.000000,277.000000) scale(0.100000,-0.100000)"
fill="#000000" stroke="none">
<path d="M1784 2739 c-9 -10 -44 -38 -77 -61 -33 -24 -68 -51 -78 -60 -11 -10
-19 -16 -19 -12 0 3 -15 -6 -33 -20 -31 -24 -41 -25 -138 -25 -150 1 -219 -2
-225 -12 -3 -5 -9 -7 -13 -5 -4 3 -27 0 -52 -6 -24 -6 -52 -10 -61 -10 -10 0
-18 -2 -18 -6 0 -4 -12 -8 -26 -9 -15 0 -29 -5 -33 -10 -3 -5 -15 -9 -26 -8
-11 0 -22 -2 -25 -5 -5 -5 -81 -43 -90 -45 -28 -6 -50 -18 -50 -27 0 -6 -3 -8
-6 -5 -4 4 -20 -3 -35 -14 -16 -11 -29 -18 -29 -15 0 3 -12 -6 -27 -20 -14
-13 -28 -22 -30 -20 -2 2 -16 -7 -31 -20 -64 -57 -72 -63 -72 -56 0 4 -9 -6
-20 -23 -11 -16 -20 -27 -20 -23 0 4 -16 -9 -35 -29 -19 -20 -35 -40 -35 -45
0 -4 -7 -8 -16 -8 -8 0 -13 -4 -10 -8 3 -5 -8 -23 -24 -40 -16 -18 -26 -32
-22 -32 4 0 2 -4 -4 -8 -6 -4 -19 -22 -28 -39 -9 -18 -24 -34 -34 -35 -9 -1
-24 -2 -32 -3 -20 -1 -92 -39 -120 -62 -45 -38 -98 -152 -95 -205 1 -16 -2
-28 -8 -28 -6 0 -6 -4 0 -12 6 -7 9 -25 8 -40 -1 -16 2 -28 7 -28 4 0 8 -8 8
-19 0 -10 9 -30 20 -43 10 -14 17 -28 14 -31 -3 -3 3 -8 14 -11 29 -9 35 -30
38 -126 1 -47 5 -101 8 -120 4 -19 7 -50 8 -68 1 -18 5 -35 10 -38 4 -3 8 -16
8 -29 0 -13 4 -34 9 -47 20 -50 24 -63 22 -76 -1 -6 3 -12 10 -12 6 0 9 -6 6
-14 -3 -8 -1 -16 4 -18 5 -2 11 -13 12 -25 0 -12 3 -20 5 -18 2 2 19 -26 37
-63 19 -37 43 -77 54 -89 12 -12 21 -26 21 -31 0 -5 11 -17 24 -28 14 -10 23
-20 22 -23 -2 -3 5 -15 15 -25 17 -17 19 -18 19 -3 0 9 -5 17 -11 17 -5 0 -8
4 -4 9 3 6 -3 14 -12 20 -10 6 -14 11 -10 11 4 0 -4 17 -18 37 -14 21 -25 43
-25 50 0 7 -4 13 -10 13 -5 0 -10 9 -10 20 0 11 -4 20 -10 20 -5 0 -10 14 -10
30 0 17 -4 30 -9 30 -5 0 -12 18 -16 40 -4 22 -10 40 -15 40 -4 0 -6 11 -5 25
2 14 -2 25 -8 25 -5 0 -8 2 -5 5 3 3 1 27 -4 53 -20 97 -30 284 -16 314 6 12
20 16 52 15 41 -1 53 -13 33 -33 -4 -4 -7 -22 -7 -41 0 -20 -5 -33 -12 -33 -8
0 -9 -3 -3 -8 6 -4 11 -16 13 -27 5 -34 25 -79 50 -113 17 -23 25 -47 26 -77
1 -25 3 -45 6 -45 3 0 5 -15 6 -33 1 -17 5 -41 9 -51 7 -15 5 -18 -6 -12 -11
6 -10 4 1 -6 8 -7 15 -24 14 -38 0 -14 3 -30 8 -36 4 -6 9 -23 10 -38 1 -14 6
-26 11 -26 5 0 7 -6 4 -14 -3 -7 0 -22 8 -32 7 -11 12 -21 11 -24 -2 -9 68
-145 76 -148 4 -2 8 -10 8 -18 0 -8 7 -17 16 -21 8 -3 13 -12 10 -20 -3 -8 -1
-11 4 -8 6 3 10 2 10 -4 0 -5 29 -39 64 -75 44 -44 64 -60 63 -47 -1 12 -6 17
-16 13 -9 -3 -12 -1 -8 5 4 6 -3 24 -16 40 -44 54 -121 197 -132 248 -2 11
-12 38 -26 73 -12 30 -11 35 4 26 9 -6 9 -4 1 7 -12 15 -26 77 -28 121 -1 15
-5 30 -9 34 -11 12 -8 26 5 18 7 -5 8 -3 2 7 -13 21 -13 72 0 88 8 11 8 13 -2
7 -7 -4 -12 -2 -12 4 0 7 8 9 22 4 56 -17 142 2 196 45 37 30 82 113 77 142
-2 10 0 19 5 19 5 0 7 7 4 15 -8 19 30 15 109 -13 31 -11 57 -18 57 -15 0 3 7
0 15 -7 8 -6 18 -9 23 -6 5 3 23 -4 40 -14 28 -17 32 -24 27 -52 -3 -18 -11
-38 -17 -45 -6 -7 -8 -13 -4 -13 3 0 1 -12 -5 -27 -6 -16 -12 -36 -14 -46 -10
-46 -18 -63 -42 -83 -21 -18 -29 -20 -54 -11 -17 7 -29 19 -29 29 0 10 -5 18
-11 18 -6 0 -2 15 9 34 l20 34 -24 -3 c-13 -1 -24 2 -24 8 0 6 -5 6 -12 0 -7
-5 -26 -10 -43 -12 -16 -2 -32 -7 -33 -12 -2 -5 -8 -7 -13 -3 -5 3 -9 0 -9 -5
0 -6 -6 -11 -13 -11 -12 0 -48 -31 -78 -67 -14 -17 -20 -31 -34 -85 -2 -5 -3
-9 -4 -10 -6 -8 -8 -68 -2 -68 4 0 7 -10 8 -22 0 -35 6 -52 23 -66 13 -12 13
-13 0 -6 -21 10 29 -44 63 -68 15 -11 33 -21 40 -22 19 -4 67 -18 67 -20 0 0
-11 -23 -24 -49 -19 -40 -23 -63 -21 -120 3 -89 9 -115 39 -172 14 -25 20 -43
15 -40 -5 4 -9 1 -9 -4 0 -6 4 -11 9 -11 5 0 12 -12 17 -27 9 -35 9 -35 18
-55 4 -9 8 -22 10 -30 1 -7 4 -17 7 -23 8 -14 23 -68 21 -77 -1 -5 2 -8 8 -8
5 0 10 5 10 11 0 5 5 7 10 4 6 -3 10 -2 10 3 0 5 37 35 83 68 45 32 91 67 101
76 11 10 25 18 32 18 7 0 14 6 16 13 3 8 29 12 76 13 47 1 69 -2 65 -9 -3 -6
-1 -7 5 -3 6 4 45 9 86 11 80 5 108 9 196 27 30 6 61 11 68 11 6 0 12 3 12 7
0 5 18 9 58 12 6 1 12 5 12 10 0 4 7 8 16 8 9 0 39 11 66 25 28 14 53 24 55
21 3 -2 12 2 21 10 10 8 21 14 25 14 4 -1 15 6 23 15 9 8 21 12 27 8 7 -3 9
-3 5 2 -4 4 19 24 50 44 51 33 220 181 207 181 -3 0 0 6 7 14 7 8 18 11 23 8
6 -3 7 -2 3 2 -3 4 9 28 27 52 19 24 42 58 51 74 11 18 30 32 48 37 41 9 38 8
66 21 41 18 81 48 73 55 -3 4 -1 7 5 7 11 0 53 62 56 85 1 8 5 18 9 21 4 4 7
52 7 107 0 104 -9 135 -57 185 -20 20 -23 34 -24 105 -2 118 -5 161 -10 172
-3 6 -4 20 -3 33 0 12 -2 22 -6 22 -4 0 -7 6 -7 13 0 24 -26 122 -36 135 -5 6
-7 12 -3 12 4 0 -3 18 -14 40 -11 22 -18 40 -15 40 4 0 -2 12 -12 28 -11 15
-25 38 -31 52 -18 36 -36 65 -55 92 -9 13 -23 32 -31 43 -29 41 -28 3 2 -58
17 -34 32 -69 34 -77 2 -8 5 -17 8 -20 11 -10 30 -62 30 -80 0 -11 5 -20 12
-20 6 0 9 -3 6 -6 -3 -3 -2 -21 4 -41 16 -58 31 -148 30 -175 0 -10 4 -18 10
-18 7 0 7 -4 -1 -13 -6 -8 -9 -16 -6 -18 8 -9 11 -99 4 -111 -5 -7 -3 -16 4
-20 9 -6 9 -8 -1 -8 -10 0 -10 -5 -1 -21 8 -15 8 -19 0 -15 -6 4 -11 3 -11 -2
0 -6 -25 -10 -55 -10 -45 1 -53 3 -44 15 6 7 8 13 4 13 -4 0 -3 6 2 13 5 6 11
35 12 64 2 52 -15 104 -50 151 -11 14 -16 37 -15 62 1 22 0 40 -3 40 -3 0 -7
12 -7 28 -5 78 -10 112 -18 112 -5 0 -7 3 -4 6 3 3 2 21 -4 41 -5 19 -11 43
-13 52 -7 32 -40 116 -49 122 -5 4 -5 12 -2 18 4 6 2 11 -4 11 -6 0 -8 5 -5
10 3 6 2 10 -3 10 -4 0 -14 16 -22 35 -8 19 -17 35 -22 35 -4 0 -8 9 -8 21 0
11 -4 17 -10 14 -5 -3 -10 -1 -10 5 0 12 -8 22 -71 90 -25 28 -55 50 -65 50
-16 0 -17 2 -4 10 8 5 10 10 4 10 -24 0 -21 -14 9 -45 45 -45 57 -62 50 -69
-4 -3 -1 -6 5 -6 7 0 12 -7 12 -15 0 -8 4 -15 8 -15 6 0 32 -52 36 -72 0 -3 4
-10 9 -14 4 -4 7 -16 7 -26 0 -10 5 -18 10 -18 6 0 10 -13 10 -29 0 -17 5 -33
11 -36 6 -4 8 -13 5 -21 -3 -8 -2 -14 3 -14 4 0 8 -6 9 -12 2 -23 7 -43 15
-55 5 -8 3 -13 -3 -13 -6 0 -8 -5 -4 -12 4 -6 8 -21 10 -32 2 -12 5 -32 8 -46
5 -27 10 -113 7 -143 0 -10 -6 -15 -12 -12 -12 8 -102 8 -139 0 -14 -3 -26 -9
-28 -15 -2 -5 -9 -10 -15 -10 -37 0 -99 -94 -112 -170 -3 -19 -8 -36 -10 -38
-3 -3 -118 29 -165 46 -8 3 -24 7 -34 9 -11 2 -25 8 -33 14 -7 6 -13 8 -13 4
0 -4 -6 -2 -14 4 -11 9 -12 19 -4 44 5 18 11 37 12 42 2 8 18 62 31 105 1 3 5
17 9 33 5 15 16 32 26 37 25 13 70 13 70 -1 0 -5 6 -7 13 -3 6 4 9 4 5 -1 -4
-4 -3 -15 2 -25 6 -11 4 -26 -5 -43 -7 -15 -10 -29 -6 -31 11 -7 101 3 121 14
9 5 20 6 24 3 3 -3 6 -1 6 5 0 7 4 12 10 12 17 0 75 64 94 105 36 76 23 191
-30 254 -16 19 -103 72 -119 71 -35 -1 -36 0 -23 23 7 12 11 25 10 30 -1 4 2
7 7 7 22 0 35 154 15 198 -4 9 -8 23 -10 30 -1 8 -6 21 -10 30 -4 9 -8 19 -9
22 -1 3 -5 14 -10 25 -4 11 -18 49 -32 85 -13 36 -28 75 -33 88 -6 13 -10 33
-10 46 0 32 -24 39 -46 15z m0 -191 c-3 -5 0 -8 6 -8 6 0 8 -4 5 -10 -3 -5 -2
-10 2 -10 5 0 15 -21 22 -47 8 -27 17 -52 21 -58 4 -5 8 -17 9 -25 0 -8 4 -39
7 -68 8 -72 -16 -133 -78 -196 -26 -27 -48 -53 -48 -57 0 -9 77 -6 86 3 3 3
21 2 40 -2 18 -4 34 -6 34 -4 0 3 14 -2 30 -11 17 -9 30 -20 30 -25 0 -6 6
-10 13 -10 30 0 56 -94 44 -161 -6 -34 -59 -99 -81 -98 -13 0 -16 3 -7 6 8 3
9 8 3 12 -5 3 -12 15 -14 26 -1 11 -14 29 -27 39 -29 24 -93 46 -106 38 -5 -4
-18 -7 -28 -7 -10 0 -22 -7 -27 -15 -5 -8 -10 -11 -10 -7 0 13 -30 -20 -30
-33 0 -6 -5 -8 -10 -5 -6 4 -10 3 -8 -2 2 -9 -13 -64 -47 -173 -13 -41 -25
-84 -26 -95 -3 -30 12 -85 22 -80 4 3 10 1 14 -5 3 -5 15 -10 26 -10 10 0 19
-4 19 -9 0 -7 46 -21 77 -22 5 -1 14 -5 21 -11 7 -6 15 -8 19 -5 3 4 13 1 21
-5 7 -7 24 -13 35 -15 12 -2 29 -6 37 -10 22 -9 43 -14 63 -16 9 -1 17 -5 17
-9 0 -4 7 -5 15 -2 9 4 15 0 15 -7 0 -8 5 -6 12 6 6 11 10 40 9 65 -1 26 4 58
13 75 9 17 16 36 16 43 0 7 5 10 10 7 6 -3 10 0 10 7 0 18 33 37 77 44 21 3
41 8 46 11 4 2 7 0 7 -4 0 -5 12 -10 26 -11 14 -1 32 -9 40 -17 9 -8 21 -12
27 -8 7 3 9 3 5 -2 -4 -4 1 -15 11 -24 33 -29 46 -97 29 -150 -10 -31 -24 -53
-55 -86 -15 -16 -17 -49 -3 -40 6 3 10 2 10 -4 0 -5 13 -3 29 5 49 25 158 18
191 -11 9 -8 19 -13 21 -10 6 5 65 -85 62 -95 -1 -3 2 -23 7 -43 4 -20 5 -37
1 -37 -4 0 -8 -12 -9 -26 -4 -47 -43 -103 -95 -137 -31 -20 -133 -32 -142 -17
-4 6 -11 8 -16 5 -5 -4 -9 -1 -9 5 0 6 -4 9 -9 5 -6 -3 -37 22 -70 55 -33 33
-62 60 -65 60 -3 0 -4 -27 -2 -61 4 -69 -2 -111 -15 -103 -5 3 -7 -1 -4 -8 7
-19 -35 -64 -77 -81 -41 -17 -112 -15 -134 4 -8 6 -14 8 -14 4 0 -5 -16 8 -36
29 -19 20 -32 41 -29 46 3 6 1 10 -5 10 -6 0 -9 4 -5 9 3 5 1 12 -5 16 -6 4
-7 11 -3 18 3 6 8 27 9 46 1 20 7 37 13 39 6 2 11 9 11 15 0 7 11 24 24 38 21
23 22 27 9 45 -7 10 -17 18 -21 16 -4 -2 -34 5 -67 14 -33 10 -63 17 -67 16
-5 -1 -8 2 -8 6 0 4 -12 9 -26 10 -14 1 -31 5 -37 9 -7 4 -18 8 -25 9 -8 2
-21 6 -30 10 -19 8 -26 10 -79 18 -32 6 -42 2 -64 -18 -24 -22 -69 -136 -69
-173 0 -8 -4 -12 -8 -9 -4 2 -8 -3 -8 -12 -2 -37 -16 -87 -25 -90 -5 -2 -9 -8
-9 -13 0 -6 6 -7 13 -3 8 5 8 2 -2 -9 -7 -9 -9 -17 -4 -17 5 0 9 -9 10 -19 4
-51 74 -101 133 -96 44 4 78 16 84 31 9 23 32 5 31 -24 0 -15 4 -30 10 -34 7
-6 6 -10 -1 -15 -6 -5 -10 -18 -9 -31 1 -12 -2 -22 -7 -22 -4 0 -8 -6 -8 -12
0 -15 -50 -76 -50 -62 0 5 -7 0 -15 -10 -8 -11 -15 -16 -15 -12 0 5 -7 3 -15
-4 -12 -10 -15 -10 -15 1 0 9 -3 10 -8 4 -8 -11 -52 -16 -52 -6 0 4 -12 8 -27
9 -16 1 -30 7 -31 12 -2 6 -8 8 -13 4 -5 -3 -9 -1 -9 5 0 5 -9 13 -20 16 -11
3 -20 12 -20 20 0 7 -7 16 -16 19 -34 13 -36 9 -18 -56 5 -20 7 -71 4 -130 -1
-10 -6 -18 -11 -18 -6 0 -8 -4 -5 -8 2 -4 -9 -27 -25 -51 -16 -24 -29 -40 -29
-36 0 4 -13 -6 -29 -22 -16 -17 -43 -39 -60 -49 -17 -10 -31 -22 -31 -27 0 -4
-4 -5 -10 -2 -5 3 -10 1 -10 -4 0 -6 -5 -11 -10 -11 -6 0 -20 -9 -32 -20 -22
-20 -40 -26 -36 -12 1 4 -8 29 -20 56 -12 27 -22 54 -22 62 0 7 -4 16 -10 19
-5 3 -10 17 -10 31 0 13 -4 24 -8 24 -9 0 -16 57 -14 120 2 58 25 104 78 157
24 24 44 47 44 53 0 6 -23 9 -55 7 -30 -1 -55 -6 -55 -10 0 -5 -6 -5 -12 0 -7
4 -24 9 -37 11 -46 6 -121 87 -105 114 4 7 3 8 -4 4 -16 -10 -8 80 12 124 8
19 15 31 16 25 0 -5 11 2 24 17 25 30 36 27 36 -6 0 -12 11 -33 24 -48 14 -14
22 -29 18 -34 -4 -4 -1 -4 6 0 7 4 19 3 25 -3 19 -15 101 -7 131 12 24 16 64
77 50 77 -4 0 -1 6 5 14 6 8 13 27 14 44 1 16 5 28 10 25 6 -4 12 28 8 49 0 5
4 8 9 8 6 0 10 14 10 31 0 16 4 28 8 25 5 -3 8 17 7 45 -2 52 -36 105 -61 95
-6 -2 -21 2 -33 10 -11 8 -21 13 -21 10 0 -3 -19 2 -42 10 -47 17 -77 25 -95
26 -7 1 -13 5 -13 10 0 5 -6 8 -12 7 -15 -3 -69 11 -83 21 -5 3 -21 6 -35 6
-24 -1 -25 -5 -27 -61 -2 -33 -6 -66 -9 -75 -4 -8 -8 -19 -8 -23 -1 -5 -16
-24 -35 -42 -36 -36 -65 -46 -121 -41 -19 2 -40 4 -47 5 -18 1 -83 61 -83 75
0 7 -5 17 -12 24 -15 15 -19 82 -5 82 6 0 8 3 4 6 -9 9 20 64 51 97 24 26 25
28 9 44 -9 10 -17 13 -17 7 0 -5 -8 -11 -18 -12 -21 -2 -57 -10 -57 -12 0 -1
-15 -3 -33 -4 -17 -1 -32 0 -32 3 0 3 -12 7 -26 8 -15 0 -30 6 -34 13 -4 6
-10 10 -13 8 -11 -5 -57 34 -57 48 0 8 -4 14 -10 14 -5 0 -10 9 -10 19 0 11
-4 22 -8 25 -16 9 -5 101 18 154 13 29 25 50 27 48 3 -3 16 6 30 20 13 13 30
24 38 24 8 0 15 4 15 9 0 14 113 5 145 -12 35 -19 79 -58 101 -92 13 -21 19
-23 36 -14 15 8 17 13 9 19 -19 11 -11 124 11 160 35 58 148 99 185 69 7 -7
13 -8 13 -4 0 5 10 0 22 -11 13 -12 18 -14 13 -4 -5 8 5 2 21 -15 16 -16 29
-31 28 -33 -1 -2 4 -15 11 -28 12 -24 11 -81 -2 -114 -4 -8 -7 -19 -7 -23 -1
-5 -10 -15 -20 -23 -11 -8 -16 -14 -12 -14 4 0 1 -7 -8 -15 -23 -24 -7 -51 27
-46 4 0 7 -4 7 -9 0 -6 14 -10 30 -10 17 0 30 -4 30 -8 0 -4 8 -8 18 -9 15 -1
153 -42 202 -60 54 -20 130 5 130 43 0 8 4 14 10 14 5 0 9 3 9 8 -5 27 2 52
13 46 6 -4 8 -3 5 3 -3 5 1 32 9 59 9 27 16 54 18 59 1 6 5 16 9 23 5 6 5 17
2 22 -3 6 -2 10 3 10 4 0 8 12 7 28 -2 58 -30 105 -75 125 -26 11 -121 18
-115 7 2 -3 -10 -13 -26 -22 -16 -9 -31 -13 -34 -8 -8 14 -14 94 -7 105 4 6 7
15 8 22 3 21 44 72 67 85 71 39 168 20 230 -45 37 -40 62 -31 43 15 -7 18 -12
43 -11 56 1 12 -2 25 -7 28 -4 3 -5 10 -1 17 4 6 8 24 10 39 3 31 39 92 75
129 31 33 94 79 107 79 6 0 11 3 11 8 0 4 14 13 30 20 17 8 28 17 25 22 -3 5
3 10 12 12 18 4 46 -30 37 -44z m-333 -77 c-11 -15 -21 -34 -23 -42 -2 -8 -7
-17 -12 -21 -5 -3 -10 -29 -11 -57 -2 -58 -7 -67 -27 -49 -46 43 -194 19 -248
-41 -22 -23 -54 -73 -58 -91 -13 -48 -10 -145 6 -178 20 -45 79 -107 110 -116
19 -6 22 -4 22 21 0 37 44 67 75 49 27 -15 42 -35 40 -55 -2 -23 -28 -105 -35
-111 -3 -3 -6 -14 -8 -25 -1 -11 -4 -24 -6 -30 -1 -5 -6 -22 -11 -37 -6 -26
-23 -35 -50 -28 -5 2 -18 2 -27 2 -10 0 -18 3 -18 9 0 5 -13 9 -30 9 -16 0
-30 4 -30 9 0 6 -9 8 -20 6 -11 -2 -20 0 -20 4 0 4 -7 8 -15 9 -8 1 -22 3 -30
4 -8 1 -15 5 -15 10 0 5 -4 7 -8 4 -4 -2 -13 -2 -19 2 -8 5 -5 19 8 47 11 22
21 54 22 70 1 17 6 36 10 43 5 7 3 12 -3 12 -7 0 -10 6 -7 14 11 29 -79 167
-97 148 -3 -3 -6 -1 -6 5 0 6 -10 13 -21 16 l-21 6 21 29 c11 16 40 50 64 76
24 25 42 48 39 51 -3 3 -1 5 5 5 5 0 21 10 35 23 47 42 76 66 105 84 15 10 34
23 41 30 7 7 24 16 38 19 13 3 22 9 19 14 -2 4 20 15 50 26 30 10 55 22 55 27
0 4 5 5 10 2 6 -4 17 -1 25 5 8 7 15 10 15 7 0 -3 15 0 32 8 43 18 53 10 29
-24z m-301 -3 c0 -4 -5 -8 -12 -8 -6 0 -27 -12 -47 -27 -20 -16 -38 -28 -41
-29 -19 -3 -39 -18 -34 -25 3 -5 -1 -9 -9 -9 -8 0 -18 -7 -21 -16 -4 -9 -9
-14 -12 -12 -5 5 -54 -43 -156 -150 -21 -22 -38 -44 -38 -50 0 -5 -11 -17 -25
-26 -18 -12 -25 -13 -25 -4 0 9 -3 8 -10 -2 -5 -8 -10 -12 -10 -7 0 11 -71
-28 -103 -57 -31 -28 -56 -80 -59 -123 -2 -18 -11 -16 -37 6 -13 11 -27 21
-33 23 -12 4 11 58 25 58 6 0 7 3 4 7 -4 3 2 13 13 20 11 8 18 18 16 22 -3 4
4 14 15 21 10 8 19 18 19 22 0 14 163 168 197 187 12 6 27 17 35 23 20 20 96
68 106 68 5 0 21 9 34 20 14 10 28 17 31 13 3 -3 13 2 22 11 14 14 28 18 51
15 4 0 10 4 13 10 4 6 19 12 34 13 15 1 27 5 27 9 0 3 7 6 15 6 8 0 15 -4 15
-9z m441 -1370 c3 -5 17 -9 32 -10 15 -1 27 -5 27 -9 0 -3 6 -6 13 -7 29 -2
73 -14 82 -23 5 -5 19 -9 31 -9 12 0 27 -7 34 -15 7 -8 8 -15 3 -15 -24 0 -56
-131 -39 -159 4 -6 1 -11 -6 -11 -9 0 -9 -3 2 -10 8 -5 12 -10 7 -10 -4 0 1
-16 12 -35 23 -43 90 -107 104 -98 6 3 7 1 3 -5 -3 -6 1 -12 9 -14 13 -2 12
-8 -7 -32 -45 -56 -165 -175 -172 -169 -3 3 -6 2 -6 -4 0 -6 -19 -23 -42 -39
-24 -16 -45 -32 -48 -35 -5 -7 -156 -87 -168 -90 -4 -1 -18 -6 -32 -11 -13 -5
-37 -10 -52 -11 -15 -1 -28 -5 -28 -9 0 -5 -7 -8 -15 -8 -17 0 -20 16 -5 25
14 9 45 86 42 104 -2 7 1 10 6 7 5 -3 8 10 5 29 -4 36 5 42 36 26 25 -14 122
-16 151 -4 14 6 29 8 34 5 5 -3 6 0 2 6 -4 7 -2 12 5 12 16 0 89 80 89 97 0 7
4 13 8 13 9 0 9 0 15 80 2 30 2 60 -2 65 -3 6 -7 18 -8 29 -6 37 -83 126 -110
126 -6 0 -14 6 -16 13 -3 6 -6 -3 -6 -20 -1 -18 -5 -33 -11 -33 -5 0 -10 -6
-10 -13 0 -15 -20 -18 -63 -10 -15 2 -25 9 -21 14 3 5 0 9 -6 9 -6 0 -9 4 -6
9 4 5 2 11 -3 13 -5 2 -4 14 2 28 10 25 15 40 20 63 1 6 6 18 10 25 5 6 6 16
2 21 -3 5 -1 12 4 15 4 3 11 20 15 37 3 18 11 38 17 45 11 14 50 15 60 2z
m689 -273 c0 5 9 0 20 -10 23 -20 18 -35 -36 -101 -18 -23 -31 -44 -29 -48 3
-3 2 -4 -1 -2 -8 6 -39 -26 -47 -48 -4 -9 -11 -15 -16 -11 -5 3 -12 -3 -16
-12 -3 -10 -28 -36 -56 -58 -28 -22 -64 -52 -82 -67 -18 -15 -38 -28 -44 -28
-7 0 -13 -5 -13 -11 0 -5 -4 -7 -10 -4 -5 3 -10 1 -10 -4 0 -6 -7 -11 -15 -11
-8 0 -15 -4 -15 -9 0 -8 -37 -24 -52 -22 -5 1 -8 -3 -8 -8 0 -5 -8 -11 -17
-14 -10 -3 -37 -15 -61 -26 -25 -12 -40 -15 -37 -8 4 7 1 5 -7 -3 -7 -8 -20
-17 -28 -18 -41 -10 -50 -10 -50 -1 0 5 5 9 10 9 12 0 71 40 82 55 4 6 8 6 8
1 0 -5 9 1 20 14 11 13 20 20 20 17 0 -4 16 8 35 26 19 17 40 37 47 43 30 25
153 166 151 174 -1 4 15 10 35 14 21 3 53 13 70 22 32 15 93 83 99 107 1 7 4
21 7 32 2 11 5 27 6 35 0 11 6 8 20 -9 11 -13 20 -20 20 -16z"/>
<path d="M2307 2120 c10 -19 21 -37 26 -38 4 -2 4 -9 1 -14 -4 -6 -2 -8 4 -4
6 3 10 15 9 26 -1 10 -3 17 -5 15 -2 -2 -15 8 -29 23 l-25 27 19 -35z"/>
</g>
</svg>
